<?xml version="1.0" encoding="UTF-8" standalone="no"?>
<!-- Created with Inkscape (http://www.inkscape.org/) -->
<svg
   xmlns:dc="http://purl.org/dc/elements/1.1/"
   xmlns:cc="http://creativecommons.org/ns#"
   xmlns:rdf="http://www.w3.org/1999/02/22-rdf-syntax-ns#"
   xmlns:svg="http://www.w3.org/2000/svg"
   xmlns="http://www.w3.org/2000/svg"
   xmlns:xlink="http://www.w3.org/1999/xlink"
   xmlns:sodipodi="http://sodipodi.sourceforge.net/DTD/sodipodi-0.dtd"
   xmlns:inkscape="http://www.inkscape.org/namespaces/inkscape"
   width="37.870441"
   height="36.043846"
   id="svg2"
   sodipodi:version="0.32"
   inkscape:version="0.46"
   sodipodi:docname="network-bw.svg"
   inkscape:output_extension="org.inkscape.output.svg.inkscape"
   version="1.0">
  <defs
     id="defs4">
    <linearGradient
       inkscape:collect="always"
       id="linearGradient3214">
      <stop
         style="stop-color:#0000ff;stop-opacity:1;"
         offset="0"
         id="stop3216" />
      <stop
         style="stop-color:#0000ff;stop-opacity:0;"
         offset="1"
         id="stop3218" />
    </linearGradient>
    <inkscape:perspective
       sodipodi:type="inkscape:persp3d"
       inkscape:vp_x="-84.69186 : 995.87861 : 1"
       inkscape:vp_y="6.9830116e-15 : 114.045 : 0"
       inkscape:vp_z="87.574588 : 995.87861 : 1"
       inkscape:persp3d-origin="1.4413656 : 975.87584 : 1"
       id="perspective10" />
    <radialGradient
       inkscape:collect="always"
       xlink:href="#linearGradient3214"
       id="radialGradient3220"
       cx="26.681848"
       cy="-79.973341"
       fx="26.681848"
       fy="-79.973341"
       r="10.55002"
       gradientTransform="matrix(1,0,0,15.310929,0,1144.4928)"
       gradientUnits="userSpaceOnUse" />
  </defs>
  <sodipodi:namedview
     id="base"
     pagecolor="#ffffff"
     bordercolor="#666666"
     borderopacity="1.0"
     inkscape:pageopacity="0.0"
     inkscape:pageshadow="2"
     inkscape:zoom="4.8456365"
     inkscape:cx="26.452694"
     inkscape:cy="2.541294"
     inkscape:document-units="px"
     inkscape:current-layer="layer1"
     showgrid="false"
     inkscape:window-width="1010"
     inkscape:window-height="722"
     inkscape:window-x="4"
     inkscape:window-y="25" />
  <metadata
     id="metadata7">
    <rdf:RDF>
      <cc:Work
         rdf:about="">
        <dc:format>image/svg+xml</dc:format>
        <dc:type
           rdf:resource="http://purl.org/dc/dcmitype/StillImage" />
      </cc:Work>
    </rdf:RDF>
  </metadata>
  <g
     inkscape:label="Camada 1"
     inkscape:groupmode="layer"
     id="layer1"
     transform="translate(-2.8543262,1.0590396)">
    <g
       sodipodi:type="inkscape:box3d"
       style="fill:#0000ff"
       id="g2399"
       inkscape:perspectiveID="#perspective10"
       inkscape:corner0="-0.035433081 : 0.54423477 : 0 : 1"
       inkscape:corner7="-0.23402039 : 0.37637935 : 0.25 : 1">
      <path
         sodipodi:type="inkscape:box3dside"
         id="path2411"
         style="fill:#e9e9ff;fill-rule:evenodd;stroke:none;stroke-width:1px;stroke-linecap:butt;stroke-linejoin:round;stroke-opacity:1"
         inkscape:box3dsidetype="11"
         d="M 18.829046,-995.52712 L 39.62156,-1002.2967 L 39.62156,-983.4547 L 18.829046,-979.76589 L 18.829046,-995.52712 z" />
      <path
         sodipodi:type="inkscape:box3dside"
         id="path2401"
         style="fill:#353564;fill-rule:evenodd;stroke:none;stroke-width:1px;stroke-linecap:butt;stroke-linejoin:round;stroke-opacity:1"
         inkscape:box3dsidetype="6"
         d="M 1.751118,-1004.5035 L 1.751118,-984.65723 L 18.829046,-979.76589 L 18.829046,-995.52712 L 1.751118,-1004.5035 z" />
      <path
         sodipodi:type="inkscape:box3dside"
         id="path2403"
         style="fill:#4d4d9f;fill-rule:evenodd;stroke:none;stroke-width:1px;stroke-linecap:butt;stroke-linejoin:round;stroke-opacity:1"
         inkscape:box3dsidetype="5"
         d="M 1.751118,-1004.5035 L 24.902271,-1015.8097 L 39.62156,-1002.2967 L 18.829046,-995.52712 L 1.751118,-1004.5035 z" />
      <path
         sodipodi:type="inkscape:box3dside"
         id="path2409"
         style="fill:#afafde;fill-rule:evenodd;stroke:none;stroke-width:1px;stroke-linecap:butt;stroke-linejoin:round;stroke-opacity:1"
         inkscape:box3dsidetype="13"
         d="M 1.751118,-984.65723 L 24.902271,-990.81812 L 39.62156,-983.4547 L 18.829046,-979.76589 L 1.751118,-984.65723 z" />
      <path
         sodipodi:type="inkscape:box3dside"
         id="path2407"
         style="fill:#d7d7ff;fill-rule:evenodd;stroke:none;stroke-width:1px;stroke-linecap:butt;stroke-linejoin:round;stroke-opacity:1"
         inkscape:box3dsidetype="14"
         d="M 24.902271,-1015.8097 L 24.902271,-990.81812 L 39.62156,-983.4547 L 39.62156,-1002.2967 L 24.902271,-1015.8097 z" />
      <path
         sodipodi:type="inkscape:box3dside"
         id="path2405"
         style="fill:#8686bf;fill-rule:evenodd;stroke:none;stroke-width:1px;stroke-linecap:butt;stroke-linejoin:round;stroke-opacity:1"
         inkscape:box3dsidetype="3"
         d="M 1.751118,-1004.5035 L 24.902271,-1015.8097 L 24.902271,-990.81812 L 1.751118,-984.65723 L 1.751118,-1004.5035 z" />
    </g>
    <path
       sodipodi:type="arc"
       style="fill:#000080;stroke:#ff0000"
       id="path2867"
       sodipodi:cx="30.644566"
       sodipodi:cy="30.644566"
       sodipodi:rx="0"
       sodipodi:ry="1.6051915"
       d="M 30.644566,30.644566 A 0,1.6051915 0 1 1 30.644566,30.644566 A 0,1.6051915 0 1 1 30.644566,30.644566 z"
       transform="translate(2.8543262,-1.0590396)" />
    <rect
       style="fill:#0000ff;fill-rule:evenodd;stroke:#000000;stroke-width:1px;stroke-linecap:butt;stroke-linejoin:miter;stroke-opacity:1"
       id="rect3162"
       width="0"
       height="1.167412"
       x="74.714371"
       y="-59.100235"
       transform="translate(2.8543262,-1.0590396)" />
    <path
       sodipodi:type="arc"
       style="opacity:0.32871972;fill:#e70000;fill-opacity:1;stroke:#009500;stroke-width:0.60000001999999997;stroke-miterlimit:0;stroke-dasharray:none;stroke-opacity:0.66666667000000002"
       id="path2394"
       sodipodi:cx="16.051916"
       sodipodi:cy="7.4422517"
       sodipodi:rx="1.459265"
       sodipodi:ry="1.459265"
       d="M 17.511181,7.4422517 A 1.459265,1.459265 0 1 1 14.592651,7.4422517 A 1.459265,1.459265 0 1 1 17.511181,7.4422517 z"
       transform="matrix(0.6208897,0,0,0.2856037,7.6715954,-0.1475816)" />
    <path
       sodipodi:type="arc"
       style="opacity:0.32871972;fill:#e700d4;fill-opacity:0.53191462000000000;stroke:#009500;stroke-width:0.60000001999999997;stroke-miterlimit:0;stroke-dasharray:none;stroke-opacity:0.66666667000000002"
       id="path2396"
       sodipodi:cx="4.6696482"
       sodipodi:cy="14.008945"
       sodipodi:rx="1.459265"
       sodipodi:ry="1.6051915"
       d="M 6.1289132,14.008945 A 1.459265,1.6051915 0 1 1 3.2103832,14.008945 A 1.459265,1.6051915 0 1 1 6.1289132,14.008945 z"
       transform="matrix(0.8867776,0,0,0.4336105,3.1012269,0.2387925)" />
    <path
       sodipodi:type="arc"
       style="opacity:0.32871972;fill:#2eef00;fill-opacity:0.53191456999999998;stroke:#009500;stroke-width:0.60000001999999997;stroke-miterlimit:0;stroke-dasharray:none;stroke-opacity:0.66666667000000002"
       id="path2398"
       sodipodi:cx="30.644566"
       sodipodi:cy="13.425239"
       sodipodi:rx="1.459265"
       sodipodi:ry="1.6051915"
       d="M 32.103831,13.425239 A 1.459265,1.6051915 0 1 1 29.185301,13.425239 A 1.459265,1.6051915 0 1 1 32.103831,13.425239 z"
       transform="matrix(0.8867776,0,0,0.4336105,4.1364616,-0.1408589)" />
    <path
       sodipodi:type="arc"
       style="opacity:0.32871972;fill:#e7ee00;fill-opacity:0.53191456999999998;stroke:#009500;stroke-width:0.60000001999999997;stroke-miterlimit:0;stroke-dasharray:none;stroke-opacity:0.66666667000000002"
       id="path2400"
       sodipodi:cx="22.180828"
       sodipodi:cy="23.202314"
       sodipodi:rx="1.459265"
       sodipodi:ry="1.7511181"
       d="M 23.640093,23.202314 A 1.459265,1.7511181 0 1 1 20.721563,23.202314 A 1.459265,1.7511181 0 1 1 23.640093,23.202314 z"
       transform="matrix(0.8867776,0,0,0.4336105,0.2543308,1.7573986)" />
    <path
       sodipodi:type="arc"
       style="opacity:0.32871972;fill:#e7ee00;fill-opacity:0.53191462000000000;stroke:#009500;stroke-width:0.60000001999999997;stroke-miterlimit:0;stroke-dasharray:none;stroke-opacity:0.66666667000000002"
       id="path2402"
       sodipodi:cx="10.360782"
       sodipodi:cy="7.8800311"
       sodipodi:rx="1.3133385"
       sodipodi:ry="1.3133385"
       d="M 11.67412,7.8800311 A 1.3133385,1.3133385 0 1 1 9.0474432,7.8800311 A 1.3133385,1.3133385 0 1 1 11.67412,7.8800311 z"
       transform="matrix(0.8867776,0,0,0.4336105,3.1012269,0.2387925)" />
    <path
       sodipodi:type="arc"
       style="opacity:0.32871972;fill:#0000ff;fill-opacity:0.53191462000000000;stroke:#009500;stroke-width:0.60000001999999997;stroke-miterlimit:0;stroke-dasharray:none;stroke-opacity:0.66666667000000002"
       id="path2404"
       sodipodi:cx="30.06086"
       sodipodi:cy="23.494167"
       sodipodi:rx="1.7511181"
       sodipodi:ry="1.7511181"
       d="M 31.811978,23.494167 A 1.7511181,1.7511181 0 1 1 28.309742,23.494167 A 1.7511181,1.7511181 0 1 1 31.811978,23.494167 z"
       transform="matrix(0.8867776,0,0,0.4336105,3.1012269,0.2387925)" />
    <path
       sodipodi:type="arc"
       style="opacity:0.32871972;fill:#e76f00;fill-opacity:0.53191462000000000;stroke:#009500;stroke-width:0.60000001999999997;stroke-miterlimit:0;stroke-dasharray:none;stroke-opacity:0.66666667000000002"
       id="path2406"
       sodipodi:cx="19.116371"
       sodipodi:cy="14.008945"
       sodipodi:rx="1.6051915"
       sodipodi:ry="1.6051915"
       d="M 20.721563,14.008945 A 1.6051915,1.6051915 0 1 1 17.51118,14.008945 A 1.6051915,1.6051915 0 1 1 20.721563,14.008945 z"
       transform="matrix(0.8867776,0,0,0.4336105,3.1012269,0.2387925)" />
    <path
       sodipodi:type="arc"
       style="opacity:0.32871972;fill:#e7ee00;fill-opacity:0.53191456999999998;stroke:#009500;stroke-width:0.60000001999999997;stroke-miterlimit:0;stroke-dasharray:none;stroke-opacity:0.66666667000000002"
       id="path2408"
       sodipodi:cx="10.506708"
       sodipodi:cy="24.515652"
       sodipodi:rx="1.7511181"
       sodipodi:ry="1.6051915"
       d="M 12.257826,24.515652 A 1.7511181,1.6051915 0 1 1 8.7555901,24.515652 A 1.7511181,1.6051915 0 1 1 12.257826,24.515652 z"
       transform="matrix(0.8867776,0,0,0.4336105,0.241325,2.1434096)" />
    <path
       style="fill:none;fill-rule:evenodd;stroke:#00cfeb;stroke-width:0.60972296999999998px;stroke-linecap:butt;stroke-linejoin:miter;stroke-opacity:0.37588651000000001;opacity:0.32871972"
       d="M 9.1138379,5.1038469 C 20.091026,5.6692505 20.987122,5.7399257 20.987122,5.7399257 L 14.938469,3.6903381 L 24.347486,2.0648031 L 35.10065,5.1745222 L 35.996748,8.1428902 L 22.779316,9.2030221 L 11.130056,10.263153 L 8.217741,5.5985747 L 21.211148,9.0616709 L 35.996748,5.1038469 L 28.1559,1.9941277 L 22.107245,5.315873"
       id="path3182" />
    <rect
       style="opacity:0.32871972;fill:#000000;fill-opacity:1;stroke:#29e6ff;stroke-width:0;stroke-miterlimit:0;stroke-dasharray:none;stroke-opacity:0.37588651000000001"
       id="rect3248"
       width="32.813026"
       height="15.684215"
       x="5.9498949"
       y="17.64962" />
    <text
       xml:space="preserve"
       style="font-size:13px;font-style:normal;font-weight:bold;fill:#000000;fill-opacity:1;stroke:none;stroke-width:1px;stroke-linecap:butt;stroke-linejoin:miter;stroke-opacity:1;font-family:Bitstream Vera Sans;-inkscape-font-specification:Sans Bold;opacity:0.32871972"
       x="9.251833"
       y="29.206411"
       id="text3250"><tspan
         sodipodi:role="line"
         id="tspan3252"
         x="9.251833"
         y="29.206411"
         style="fill:#ffffff;fill-opacity:1">net</tspan></text>
  </g>
</svg>
